<svg xmlns="http://www.w3.org/2000/svg" xmlns:xlink="http://www.w3.org/1999/xlink" width="20" height="20" viewBox="0 0 20 20"><defs><path id="a" d="M45.77 204.53a2.77 2.77 0 1 1 0-5.54 2.77 2.77 0 0 1 0 5.54zm7.23 0a2.77 2.77 0 1 1 0-5.54 2.77 2.77 0 0 1 0 5.54zm7.23 0a2.77 2.77 0 1 1 .01-5.53 2.77 2.77 0 0 1-.01 5.53zm-14.46 7.24a2.77 2.77 0 1 1 0-5.54 2.77 2.77 0 0 1 0 5.54zm7.23 0a2.77 2.77 0 1 1 0-5.54 2.77 2.77 0 0 1 0 5.54zm7.23 0a2.77 2.77 0 1 1 .02-5.54 2.77 2.77 0 0 1-.02 5.54zM45.77 219a2.77 2.77 0 1 1 0-5.54 2.77 2.77 0 0 1 0 5.54zm7.23 0a2.77 2.77 0 1 1 0-5.54 2.77 2.77 0 0 1 0 5.54zm7.23 0a2.77 2.77 0 1 1 .02-5.54 2.77 2.77 0 0 1-.02 5.54z"/></defs><desc>Generated with Avocode.</desc><g transform="translate(-43 -199)"><use fill="#9b9b9b" xlink:href="#a"/></g></svg>